# xmcd CD database file
#
# Track frame offsets:
#	182
#	7100
#	18797
#	28807
#	40242
#	51867
#	64812
#	82392
#	97542
#	122670
#
# Disc length: 1774 seconds
#
# Revision: 0
# Processed by: cddbd v1.5.2PL0 Copyright (c) Steve Scherf et al.
# Submitted via: CDex 1.70beta2
#
DISCID=7a06ec0a
DTITLE=Various Artist - Aristotle's Box
DYEAR=1900
DGENRE=New Age
TTITLE0=Meaneither - Phonebox
TTITLE1=Feline - Very Lost
TTITLE2=General Mayhem - The General
TTITLE3=Luton Girls Choir - Visitor I'm A Size
TTITLE4=Grimace - Alfa Spider
TTITLE5=Salacious Crumb - P.O.P
TTITLE6=Attack Of The 30ft She Monster - The Curse Of You
TTITLE7=Lentil Soup - Make Sure
TTITLE8=Kaktus Mantras - Easy
TTITLE9=Peabody - Janet
EXTD=
EXTT0=
EXTT1=
EXTT2=
EXTT3=
EXTT4=
EXTT5=
EXTT6=
EXTT7=
EXTT8=
EXTT9=
PLAYORDER=
